<svg width="17" height="18" viewBox="0 0 17 18" fill="none" xmlns="http://www.w3.org/2000/svg">
<path d="M16.9126 16.2918L15.6849 12.6H14.3378L15.0859 16.2H1.9146L2.6627 12.6H1.31558L0.087005 16.2918C-0.22463 17.2314 0.327691 18 1.31558 18H15.6849C16.6728 18 17.2251 17.2314 16.9126 16.2918ZM12.9907 4.5C12.9907 3.30653 12.5176 2.16193 11.6754 1.31802C10.8333 0.474106 9.69117 0 8.50024 0C7.30931 0 6.16715 0.474106 5.32504 1.31802C4.48292 2.16193 4.00983 3.30653 4.00983 4.5C4.00983 8.7975 8.50024 13.5 8.50024 13.5C8.50024 13.5 12.9907 8.7975 12.9907 4.5ZM6.07542 4.554C6.07542 4.23493 6.13814 3.91899 6.26001 3.62422C6.38188 3.32945 6.56051 3.06162 6.78569 2.83605C7.01086 2.61047 7.27818 2.43157 7.57237 2.30955C7.86656 2.18753 8.18185 2.12478 8.50024 2.1249C9.14322 2.1249 9.75987 2.38087 10.2145 2.8365C10.6692 3.29213 10.9246 3.91009 10.9246 4.55445C10.9246 5.19881 10.6692 5.81677 10.2145 6.2724C9.75987 6.72803 9.14322 6.984 8.50024 6.984C7.85714 6.984 7.24037 6.72798 6.78563 6.27227C6.33089 5.81656 6.07542 5.19848 6.07542 4.554Z" fill="#FF5257"/>
</svg>
