<svg width="18" height="18" viewBox="0 0 18 18" fill="none" xmlns="http://www.w3.org/2000/svg">
<path d="M11.295 13.095L12.555 11.8125L9.9 9.1575V5.4H8.1V9.9L11.295 13.095ZM8.1 3.6H9.9V1.8H8.1V3.6ZM14.4 9.9H16.2V8.1H14.4V9.9ZM8.1 16.2H9.9V14.4H8.1V16.2ZM1.8 9.9H3.6V8.1H1.8V9.9ZM9 18C7.755 18 6.585 17.7636 5.49 17.2908C4.395 16.818 3.4425 16.1769 2.6325 15.3675C1.8225 14.5575 1.1814 13.605 0.7092 12.51C0.237 11.415 0.0006 10.245 0 9C0 7.755 0.2364 6.585 0.7092 5.49C1.182 4.395 1.8231 3.4425 2.6325 2.6325C3.4425 1.8225 4.395 1.1814 5.49 0.7092C6.585 0.237 7.755 0.0006 9 0C10.245 0 11.415 0.2364 12.51 0.7092C13.605 1.182 14.5575 1.8231 15.3675 2.6325C16.1775 3.4425 16.8189 4.395 17.2917 5.49C17.7645 6.585 18.0006 7.755 18 9C18 10.245 17.7636 11.415 17.2908 12.51C16.818 13.605 16.1769 14.5575 15.3675 15.3675C14.5575 16.1775 13.605 16.8189 12.51 17.2917C11.415 17.7645 10.245 18.0006 9 18Z" fill="#FF5257"/>
</svg>
